#!OML:ASF F:\VICON\USERDATA\INSTALL\rory3\rory3.ASF
:FULLY-SPECIFIED
:DEGREES
27
root 0.9539365414668071 18.06544722591055 -3.464484833876581 -3.4253949213655934 -2.9787682210180186 1.7874065750184394
lfemur -4.135303710777579 -2.5253730774830716 -26.741851925131705
ltibia 27.732704011442415
lfoot -13.74939044190377 3.324675410909772
ltoes 0.45412239515176234
rfemur -25.296719856149984 0.533553268890016 20.589244910463186
rtibia 68.44284101380654
rfoot -6.0276110623739765 -5.117037105492803
rtoes 6.151234752810657
lowerback 10.768493904771834 0.6502750471594388 -1.8438636593619833
upperback 0.47525285093498076 0.6561942871116497 0.511292641382874
thorax -5.401313068541053 0.38034074253547984 1.6062387375896836
lowerneck -16.194883435347275 -2.711280104325757 -1.637612896102238
upperneck 21.981006386886325 -3.376987043848581 0.2651498963641995
head 9.701355368396593 -1.696198528609931 -0.0500671255470824
lclavicle -1.3219246532897142e-15 1.4854460377119843e-15
lhumerus -30.85455046061524 0.7609722731225851 82.83035567745534
lradius 24.482067323393782
lwrist 4.116953948404998
lhand -26.25082255558986 24.16625744123232
lfingers 7.12502
lthumb 0.3035037236859536 54.14526868113311
rclavicle -1.3219246532897142e-15 1.4854460377119843e-15
rhumerus -28.29462169148554 -17.344922005463403 -79.91426990233336
rradius 24.94339229212956
rwrist 5.2317727541013355
rhand -16.767472302830814 22.299581057656383
rfingers 7.12502
rthumb 9.459637457491045 -7.463826294722223
28
root 0.9143491942380826 18.040711149957637 -2.4443989233592145 -3.1925953348651257 -2.3728983700621535 2.3277173984892667
lfemur -1.2234950802847129 -2.22022572681641 -27.307754221422716
ltibia 27.644137243490306
lfoot -14.361884981640262 3.70388181541416
ltoes 1.624946299058307
rfemur -27.795029023217424 0.7181009007696311 20.47081114158712
rtibia 62.53498719956896
rfoot -7.301676383457952 -5.659715655519639
rtoes 3.247377714500809
lowerback 10.748854743940102 0.31912674616793063 -2.4629655376704624
upperback 0.4862876472864791 0.1424011313627176 0.5883166905976447
thorax -5.354790914632457 0.14252005803081763 2.175956968543778
lowerneck -16.269527780938926 -2.7036503227931314 -1.7594048831962996
upperneck 21.93473836813548 -3.3597228636632135 0.3173353390853192
head 9.69635425820026 -1.68801294438149 -0.003187643146540492
lclavicle -8.355061895818461e-16 1.9331116221232476e-15
lhumerus -29.00982528694167 -1.2530053596879787 83.08960036667543
lradius 26.45071387409905
lwrist 5.064284456656275
lhand -26.565568010255124 24.186205770519493
lfingers 7.12502
lthumb -0.00046841812979103725 54.16409897448459
rclavicle -8.355061895818461e-16 1.9331116221232476e-15
rhumerus -28.79740536947149 -16.826164255161984 -79.80756761229617
rradius 25.234040789398506
rwrist 4.806628820127104
rhand -16.63953447110426 22.346965185117785
rfingers 7.12502
rthumb 9.583063819687085 -7.412302607526654
29
root 0.8586978161165937 17.998771436041565 -2.696680273069166 -2.792562101300845 -1.9746662788973883 2.7070782596415035
lfemur 0.8462227492280796 -2.317674207170769 -28.31780726908935
ltibia 23.965757950450293
lfoot -15.22915311889448 3.7854767271026972
ltoes 2.3265907859259944
rfemur -29.989327390602075 1.2270144486177155 19.326346187529882
rtibia 53.13930391453768
rfoot -7.922318533370792 -7.417945998593043
rtoes 0.09893258166593277
lowerback 10.554563398308783 -0.05238467456439144 -3.211443703475253
upperback 0.4636081550660136 -0.4268421724134712 0.5909300146746486
thorax -5.270613544146136 -0.12512239562292238 2.498255410639234
lowerneck -16.43289827040592 -2.7453167429413803 -1.9337997888021277
upperneck 21.806542551054655 -3.408528096923338 0.3592128466435843
head 9.67493107731365 -1.7083281124077032 0.02607768331665948
lclavicle -1.4503849976520752e-15 1.3675912375246483e-15
lhumerus -27.573112502404157 -2.9601572765206896 82.97853471859588
lradius 27.832450844881745
lwrist 5.724320228758731
lhand -26.38968246446264 25.53165088399878
lfingers 7.12502
lthumb 0.16938603813326691 55.50926532815753
rclavicle -1.450384997652075e-15 1.3675912375246483e-15
rhumerus -29.21517714347147 -17.006719987292858 -79.83620365418429
rradius 25.222014714126093
rwrist 4.3522401917486135
rhand -16.7838389113988 22.372621538330996
rfingers 7.12502
rthumb 9.443806507813767 -7.390352502458757
30
root 0.8116117198133792 17.969028553085227 -1.6012012678389755 -2.268351848462685 -1.3372450198806902 3.056221991202525
lfemur 4.052776179606486 -2.0527801005753945 -28.550594051590096
ltibia 21.137585339810453
lfoot -15.252607005906263 3.1494494413463396
ltoes 1.7577744388155723
rfemur -30.433782219573132 2.4915168239188867 18.447087489115354
rtibia 42.16663512302302
rfoot -7.131724366314464 -9.968978176462564
rtoes -1.926033561875633
lowerback 10.248369294422154 -0.3335976111993627 -3.8205121635154997
upperback 0.41083475270721526 -0.8567011106312066 0.6741820833416051
thorax -5.12927738566946 -0.326342889644894 2.950936495337539
lowerneck -16.62401978551215 -2.746160507424607 -1.9596494720385516
upperneck 21.688737186892943 -3.408325212194639 0.38259205003582997
head 9.66638867498225 -1.7053956368457714 0.04532383072011009
lclavicle -1.4183168039188014e-15 1.3985283170785457e-15
lhumerus -25.833758091422688 -4.2249590336571 82.81358303219498
lradius 29.076286170847283
lwrist 6.593464020482432
lhand -26.34203151650501 26.69303860139441
lfingers 7.12502
lthumb 0.21537757448091 56.66822830064235
rclavicle -1.4183168039188014e-15 1.3985283170785457e-15
rhumerus -29.67430507443958 -17.292906047591167 -79.5825750361674
rradius 24.92899909510956
rwrist 4.498227937995942
rhand -16.755565320070453 22.583469800833615
rfingers 7.12502
rthumb 9.471085618775486 -7.178208697993614
31
root 0.7527620999223914 17.93755045290115 -0.4947131174380477 -1.683563453871908 -0.5832456143937512 3.4351958579316517
lfemur 7.675146859586727 -1.9516986271949737 -28.700529176505395
ltibia 17.188866330275438
lfoot -15.050198095012629 2.3658514720200845
ltoes 0.9044343784101554
rfemur -30.097701541244007 4.4166448601665405 16.978499658317375
rtibia 30.575897823006777
rfoot -6.176904077759797 -12.803095291456104
rtoes -3.201074153084606
lowerback 9.843386281080765 -0.6278641812986921 -4.38767052712502
upperback 0.3172698023012442 -1.2976763042063446 0.7248534323122214
thorax -4.960290781785297 -0.5351680158664116 3.3596328515717606
lowerneck -16.711128245112356 -2.760229499488052 -1.991117101596574
upperneck 21.60934072365126 -3.4261493702146706 0.41613469894757177
head 9.662172866182038 -1.7119159348248674 0.06499023820827281
lclavicle -1.3814106483879884e-15 1.4332649690232686e-15
lhumerus -24.340900170286197 -4.99555439877285 82.60703107202129
lradius 30.175726892762828
lwrist 7.308637591686468
lhand -26.501941876824322 27.693501993984025
lfingers 7.12502
lthumb 0.06091947021192656 57.66496723307502
rclavicle -1.3814106483879884e-15 1.4332649690232686e-15
rhumerus -30.161874699180597 -18.13906217051862 -79.06779080614945
rradius 24.44132146602807
rwrist 5.167948427243791
rhand -16.81033878356429 23.030330791818315
rfingers 7.12502
rthumb 9.418239469265718 -6.733711046493719
32
root 0.6872499314516443 17.89193944568006 0.7968149759192737 -1.2138045602767147 0.1504788100886607 3.7221207196805772
lfemur 11.014358089689438 -1.9239075839828308 -28.749506730857533
ltibia 14.028617262627506
lfoot -14.844185443255963 1.4154119937673133
ltoes -0.7685043117184294
rfemur -29.289724644337557 6.2261307700688615 15.533744485399561
rtibia 20.79509055478247
rfoot -6.05898796739287 -15.051090242638283
rtoes -4.449210666953862
lowerback 9.478345500868494 -0.8969068009302695 -4.8616895241846505
upperback 0.23654030691173253 -1.690943414978197 0.7813017123413736
thorax -4.8039291350147275 -0.7227753128185126 3.702663641551084
lowerneck -16.76617427637864 -2.770811287593394 -2.0283362908173688
upperneck 21.52529323974452 -3.4428413203429784 0.4595038851895988
head 9.645963187181655 -1.7168072392939842 0.08266064217354047
lclavicle -1.4231861461565479e-15 1.3952315350274907e-15
lhumerus -23.033012506138107 -5.446833848848415 82.34566934502972
lradius 31.130550946627885
lwrist 7.852778092154198
lhand -26.89162575575404 27.71173323719104
lfingers 7.12502
lthumb -0.3154489785265912 57.68012633061205
rclavicle -1.4231861461565479e-15 1.3952315350274907e-15
rhumerus -30.674821164069233 -19.62835891856076 -78.3517864460338
rradius 23.624395731273772
rwrist 6.3465221269364624
rhand -16.965886282367748 22.850262245311043
rfingers 7.12502
rthumb 9.268142179589901 -6.920499498142657
33
root 0.6264938938631411 17.838813898188295 2.7285045283740175 -0.937345112994389 0.8287474313959415 3.946468765364657
lfemur 14.177374026423067 -2.3394422803995423 -28.3886659721582
ltibia 12.642973462662432
lfoot -14.409536414727608 0.7674967123067269
ltoes -3.2470893151996725
rfemur -27.946304880185416 7.1819824750436085 15.083322142554467
rtibia 16.407006545784142
rfoot -6.267005761157074 -15.040363167805234
rtoes -5.1384828861066545
lowerback 9.304128304422903 -1.0100712473235531 -4.980424074752242
upperback 0.2047965880634164 -1.8475210389427588 0.902174396499368
thorax -4.691818288854062 -0.7988737360633302 4.027504200162559
lowerneck -16.84856829645409 -2.780441618258309 -2.041528532168259
upperneck 21.459080099005266 -3.4529621040018794 0.5152820536916091
head 9.64115731557101 -1.7194358669048782 0.09930460026504204
lclavicle -9.050943902762974e-16 1.87233815954591e-15
lhumerus -22.06969465981387 -5.229577845233297 82.1834446091474
lradius 31.9434313392886
lwrist 8.339889181766278
lhand -27.315025655666393 27.295128367519883
lfingers 7.12502
lthumb -0.7243286173743495 57.262105799307925
rclavicle -9.050943902762974e-16 1.87233815954591e-15
rhumerus -31.052227204870803 -21.055574491682115 -77.41174405441662
rradius 22.8893832103866
rwrist 7.792684379161285
rhand -17.223068819748732 22.446921340243563
rfingers 7.12502
rthumb 9.019969613210671 -7.337047655284384
